<svg width="400" height="400" viewBox="0 0 400 400" fill="none" xmlns="http://www.w3.org/2000/svg">
<path d="M70.8 32.9333C75.2 43.8666 79.3333 54 80 55.6C82.5333 61.3333 83.8667 64.6666 87.3333 73.2L90.6667 81.8667L76.6667 120.4L62.5333 159.067L71.4667 185.867C80.5333 213.2 85.7333 228 94.4 250.667C106.8 283.467 107.2 284.133 122.133 304.133C130.133 314.8 143.333 332.8 151.333 344.267L166 364.933L184.4 376L202.8 387.2L207.733 384.667C210.4 383.2 215.067 380.533 218 378.667C220.933 376.8 227.2 372.933 232 370.133C240 365.467 241.867 363.333 255.333 344.267C263.467 332.933 276.533 314.8 284.667 304.133L299.333 284.667L310.4 256C316.4 240.267 323.2 221.067 325.467 213.333C327.733 205.6 330.933 194.533 332.667 188.667C334.533 182.8 337.2 173.733 338.667 168.533L341.333 159.067L338 149.867C336.133 144.8 333.2 136.8 331.467 132C329.733 127.2 324.933 114 320.8 102.533L313.2 81.7333L327.067 47.4666C334.667 28.6666 340.667 13.3333 340.133 13.3333C339.333 13.3333 313.333 24 278.667 38.6666C268.8 42.8 259.733 46.5333 258.667 46.9333C256.933 47.4666 248.133 39.4666 248 37.0666C248 35.7333 240.533 33.7333 229.333 32C223.867 31.0666 218.133 30.1333 216.667 29.8666C214 29.3333 206.4 28 202.667 27.3333C201.6 27.2 198.667 27.6 196 28.1333C193.467 28.6666 188.933 29.4666 186 30C158.8 34.1333 158.4 34.2666 152.667 40.6666C149.733 44 146.667 46.6666 145.867 46.6666C145.067 46.6666 126.533 39.2 104.533 30C82.6667 20.8 64.2667 13.3333 63.7333 13.3333C63.3333 13.3333 66.4 22.1333 70.8 32.9333ZM181.733 132.667C190.8 138.133 199.067 142.933 200.267 143.333C201.467 143.867 209.867 139.6 220.4 133.2L238.533 122.4L249.6 123.867C255.733 124.8 262.8 125.733 265.333 126.133C267.867 126.533 271.2 126.933 272.667 127.333C274.133 127.6 278.4 128.267 282 128.8C285.733 129.2 288.933 129.867 289.333 130.267C289.733 130.667 290 147.2 290.133 167.067V203.333L282.667 222.133C278 233.6 272.267 245.333 267.733 252.133C261.333 261.867 258.933 267.467 249.467 296L238.667 328.8L226.933 340.133L215.333 351.467L201.067 351.333L186.933 351.2L175.867 340.133L164.8 329.2L153.733 296.267C144.4 268.533 141.467 261.6 135.2 251.733C131.067 245.2 124.4 232 120.4 222.267L113.067 204.667V167.6C113.067 147.2 113.333 130.267 113.6 130C113.867 129.733 117.333 129.2 121.333 128.667C125.333 128.267 129.6 127.733 130.667 127.333C131.733 127.067 135.333 126.533 138.667 126C142 125.6 147.733 124.8 151.333 124.133C163.733 122 164.667 122.267 181.733 132.667Z" fill="white"/>
<path d="M128 166.667C128 172.4 128.933 174.667 135.2 184.533C142.133 195.2 142.8 195.733 148.267 196.533C151.467 196.933 154.8 197.467 155.733 197.6C156.8 197.733 157.333 200.133 157.333 204.267C157.333 207.733 157.733 210.667 158.133 210.667C158.667 210.667 169.867 204.533 171.733 203.2C172 203.067 170.667 196.267 168.667 188.267L165.067 173.733L152.267 168.8C145.2 166 137.333 162.933 134.933 161.867C128.533 159.067 128 159.333 128 166.667ZM262.667 164.133C257.2 166.267 250.933 168.933 248.667 169.867C246.533 170.933 243.333 172.133 241.733 172.533C239.733 173.2 238.267 175.067 237.467 178.4C235.6 185.6 232 201.333 232 202.533C232 203.067 234.267 204.667 237.067 206C246.533 210.933 246.133 210.933 246.267 204.4C246.4 201.067 246.8 198.133 247.067 197.867C247.333 197.467 250.667 196.933 254.533 196.4C261.867 195.6 262 195.467 272.8 177.6C276 172.667 276.8 160 274.133 160.133C273.333 160.133 268.133 162 262.667 164.133ZM186 222.267C185.467 224.4 184.8 227.467 184.533 229.333C184 232.267 182.533 239.733 180.8 248.667C180.4 250.133 179.2 256.133 178 262C176.8 267.867 175.6 274.133 175.333 276C175.067 277.867 174.267 282 173.467 285.2C172.4 290.133 172.667 292.533 175.6 301.2C177.467 306.8 180.667 315.067 182.8 319.6C186.267 326.933 187.2 328 190.4 328C192.4 328 195.6 329.467 197.733 331.467C201.6 335.067 202.133 334.933 207.733 329.6C208.667 328.8 211.067 328 213.067 328C216 328 217.333 326.8 220.267 320.933C222.267 317.2 225.067 310.133 226.667 305.333C228.267 300.533 230 295.6 230.667 294.4C231.333 293.067 231.733 291.333 231.333 290.4C231.067 289.467 230.533 287.2 230.133 285.333C228.533 275.467 217.067 219.2 216.533 218.8C216.267 218.533 212.8 219.867 208.8 221.867L201.6 225.467L194.8 222.133C191.067 220.267 187.867 218.667 187.467 218.667C187.2 218.667 186.533 220.267 186 222.267Z" fill="white"/>
</svg>
